{  "header": {    "PPQ": 480,    "timeSignature": [      4,      4    ],    "bpm": 72.99998296667064  },  "startTime": 0,  "duration": 27.12158167083331,  "tracks": [    {      "startTime": 0,      "duration": 27.12158167083331,      "length": 38,      "id": 0,      "instrumentNumber": 0,      "instrument": "standard kit",      "instrumentFamily": "drums",      "channelNumber": 9,      "isPercussion": true,      "notes": [        {          "name": "C#2",          "midi": 37,          "time": 0,          "velocity": 0.6299212598425197,          "duration": 0.8202056708333333        },        {          "name": "C#2",          "midi": 37,          "time": 0.8219179999999999,          "velocity": 0.6299212598425197,          "duration": 0.8202056708333332        },        {          "name": "C#2",          "midi": 37,          "time": 1.6438359999999999,          "velocity": 0.6299212598425197,          "duration": 0.8202056708333334        },        {          "name": "C#2",          "midi": 37,          "time": 2.465754,          "velocity": 0.6299212598425197,          "duration": 0.8202056708333334        },        {          "name": "C2",          "midi": 36,          "time": 3.287672,          "velocity": 0.6299212598425197,          "duration": 0.820205670833333        },        {          "name": "F#2",          "midi": 42,          "time": 3.287672,          "velocity": 0.6299212598425197,          "duration": 0.820205670833333        },        {          "name": "F#2",          "midi": 42,          "time": 4.10959,          "velocity": 0.6299212598425197,          "duration": 0.8202056708333334        },        {          "name": "D2",          "midi": 38,          "time": 4.931508,          "velocity": 0.6299212598425197,          "duration": 0.8202056708333334        },        {          "name": "F#2",          "midi": 42,          "time": 4.931508,          "velocity": 0.6299212598425197,          "duration": 0.8202056708333334        },        {          "name": "F#2",          "midi": 42,          "time": 5.753426,          "velocity": 0.6299212598425197,          "duration": 0.8202056708333334        },        {          "name": "C2",          "midi": 36,          "time": 6.575344,          "velocity": 0.6299212598425197,          "duration": 0.8202056708333334        },        {          "name": "F#2",          "midi": 42,          "time": 6.575344,          "velocity": 0.6299212598425197,          "duration": 0.8202056708333334        },        {          "name": "F#2",          "midi": 42,          "time": 7.3972620000000004,          "velocity": 0.6299212598425197,          "duration": 0.8202056708333325        },        {          "name": "D2",          "midi": 38,          "time": 8.21918,          "velocity": 0.6299212598425197,          "duration": 0.8202056708333334        },        {          "name": "F#2",          "midi": 42,          "time": 8.21918,          "velocity": 0.6299212598425197,          "duration": 0.8202056708333334        },        {          "name": "F#2",          "midi": 42,          "time": 9.041098,          "velocity": 0.6299212598425197,          "duration": 0.8202056708333334        },        {          "name": "D2",          "midi": 38,          "time": 9.863016,          "velocity": 0.6299212598425197,          "duration": 0.8202056708333334        },        {          "name": "C3",          "midi": 48,          "time": 10.684934,          "velocity": 0.6299212598425197,          "duration": 0.8202056708333334        },        {          "name": "B2",          "midi": 47,          "time": 11.506852,          "velocity": 0.6299212598425197,          "duration": 0.8202056708333334        },        {          "name": "A2",          "midi": 45,          "time": 12.32877,          "velocity": 0.6299212598425197,          "duration": 0.8202056708333334        },        {          "name": "C2",          "midi": 36,          "time": 13.150688,          "velocity": 0.6299212598425197,          "duration": 0.8202056708333334        },        {          "name": "D#3",          "midi": 51,          "time": 13.150688,          "velocity": 0.6299212598425197,          "duration": 0.8202056708333334        },        {          "name": "D#3",          "midi": 51,          "time": 13.972606,          "velocity": 0.6299212598425197,          "duration": 0.8202056708333334        },        {          "name": "D2",          "midi": 38,          "time": 14.794524000000001,          "velocity": 0.6299212598425197,          "duration": 0.8202056708333334        },        {          "name": "D#3",          "midi": 51,          "time": 14.794524000000001,          "velocity": 0.6299212598425197,          "duration": 0.8202056708333334        },        {          "name": "D#3",          "midi": 51,          "time": 15.616442000000001,          "velocity": 0.6299212598425197,          "duration": 0.8202056708333334        },        {          "name": "C2",          "midi": 36,          "time": 16.43836,          "velocity": 0.6299212598425197,          "duration": 0.8202056708333316        },        {          "name": "D#3",          "midi": 51,          "time": 16.43836,          "velocity": 0.6299212598425197,          "duration": 0.8202056708333316        },        {          "name": "D#3",          "midi": 51,          "time": 17.260277999999996,          "velocity": 0.6299212598425197,          "duration": 0.8202056708333316        },        {          "name": "D2",          "midi": 38,          "time": 18.082195999999993,          "velocity": 0.6299212598425197,          "duration": 0.8202056708333316        },        {          "name": "D#3",          "midi": 51,          "time": 18.082195999999993,          "velocity": 0.6299212598425197,          "duration": 0.8202056708333316        },        {          "name": "D#3",          "midi": 51,          "time": 18.90411399999999,          "velocity": 0.6299212598425197,          "duration": 0.8202056708333316        },        {          "name": "C2",          "midi": 36,          "time": 19.726031999999986,          "velocity": 0.6299212598425197,          "duration": 0.8202056708333316        },        {          "name": "C#3",          "midi": 49,          "time": 19.726031999999986,          "velocity": 0.6299212598425197,          "duration": 0.8202056708333316        },        {          "name": "C2",          "midi": 36,          "time": 23.013703999999983,          "velocity": 0.6299212598425197,          "duration": 0.8202056708333316        },        {          "name": "C#3",          "midi": 49,          "time": 23.013703999999983,          "velocity": 0.6299212598425197,          "duration": 0.8202056708333316        },        {          "name": "D2",          "midi": 38,          "time": 26.30137599999998,          "velocity": 0.6299212598425197,          "duration": 0.8202056708333316        },        {          "name": "A2",          "midi": 45,          "time": 26.30137599999998,          "velocity": 0.6299212598425197,          "duration": 0.8202056708333316        }      ],      "controlChanges": {        "7": [          {            "number": 7,            "time": 0,            "value": 0.7874015748031497          }        ],        "10": [          {            "number": 10,            "time": 0,            "value": 0.5039370078740157          }        ],        "91": [          {            "number": 91,            "time": 0,            "value": 0          }        ],        "93": [          {            "number": 93,            "time": 0,            "value": 0          }        ],        "121": [          {            "number": 121,            "time": 0,            "value": 0          }        ]      }    }  ]}