{  "header": {    "PPQ": 480,    "timeSignature": [      4,      4    ],    "bpm": 69.99998833333528  },  "startTime": 0,  "duration": 27.42679028541666,  "tracks": [    {      "startTime": 0,      "duration": 27.42679028541666,      "length": 22,      "id": 0,      "instrumentNumber": 0,      "instrument": "standard kit",      "instrumentFamily": "drums",      "channelNumber": 9,      "isPercussion": true,      "notes": [        {          "name": "C#2",          "midi": 37,          "time": 0,          "velocity": 0.6299212598425197,          "duration": 0.8553572854166667        },        {          "name": "C#2",          "midi": 37,          "time": 0.857143,          "velocity": 0.6299212598425197,          "duration": 0.8553572854166667        },        {          "name": "C#2",          "midi": 37,          "time": 1.714286,          "velocity": 0.6299212598425197,          "duration": 0.8553572854166664        },        {          "name": "C#2",          "midi": 37,          "time": 2.5714289999999997,          "velocity": 0.6299212598425197,          "duration": 0.8553572854166664        },        {          "name": "D2",          "midi": 38,          "time": 3.4285719999999995,          "velocity": 0.6299212598425197,          "duration": 0.8553572854166664        },        {          "name": "D2",          "midi": 38,          "time": 5.1428579999999995,          "velocity": 0.6299212598425197,          "duration": 0.8553572854166669        },        {          "name": "D2",          "midi": 38,          "time": 6.857144,          "velocity": 0.6299212598425197,          "duration": 0.8553572854166669        },        {          "name": "D2",          "midi": 38,          "time": 7.714287000000001,          "velocity": 0.6299212598425197,          "duration": 0.855357285416666        },        {          "name": "D2",          "midi": 38,          "time": 8.57143,          "velocity": 0.6299212598425197,          "duration": 0.855357285416666        },        {          "name": "D2",          "midi": 38,          "time": 12.000001999999999,          "velocity": 0.6299212598425197,          "duration": 0.855357285416666        },        {          "name": "D2",          "midi": 38,          "time": 12.857144999999997,          "velocity": 0.6299212598425197,          "duration": 0.855357285416666        },        {          "name": "D2",          "midi": 38,          "time": 13.714287999999996,          "velocity": 0.6299212598425197,          "duration": 0.855357285416666        },        {          "name": "D2",          "midi": 38,          "time": 15.428573999999996,          "velocity": 0.6299212598425197,          "duration": 0.8553572854166678        },        {          "name": "D2",          "midi": 38,          "time": 16.285716999999998,          "velocity": 0.6299212598425197,          "duration": 0.855357285416666        },        {          "name": "D2",          "midi": 38,          "time": 17.14286,          "velocity": 0.6299212598425197,          "duration": 0.855357285416666        },        {          "name": "D2",          "midi": 38,          "time": 18.000003,          "velocity": 0.6299212598425197,          "duration": 0.855357285416666        },        {          "name": "D2",          "midi": 38,          "time": 18.857146,          "velocity": 0.6299212598425197,          "duration": 0.855357285416666        },        {          "name": "D2",          "midi": 38,          "time": 19.714289,          "velocity": 0.6299212598425197,          "duration": 0.855357285416666        },        {          "name": "D2",          "midi": 38,          "time": 20.571432,          "velocity": 0.6299212598425197,          "duration": 0.855357285416666        },        {          "name": "D2",          "midi": 38,          "time": 22.285718,          "velocity": 0.6299212598425197,          "duration": 0.855357285416666        },        {          "name": "D2",          "midi": 38,          "time": 24.000003999999997,          "velocity": 0.6299212598425197,          "duration": 0.855357285416666        },        {          "name": "D2",          "midi": 38,          "time": 26.571432999999995,          "velocity": 0.6299212598425197,          "duration": 0.855357285416666        }      ],      "controlChanges": {        "7": [          {            "number": 7,            "time": 0,            "value": 0.7874015748031497          }        ],        "10": [          {            "number": 10,            "time": 0,            "value": 0.5039370078740157          }        ],        "91": [          {            "number": 91,            "time": 0,            "value": 0          }        ],        "93": [          {            "number": 93,            "time": 0,            "value": 0          }        ],        "121": [          {            "number": 121,            "time": 0,            "value": 0          }        ]      }    }  ]}