{  "header": {    "PPQ": 480,    "timeSignature": [      4,      4    ],    "bpm": 85.00004250002125  },  "startTime": 0,  "duration": 30.3514554125,  "tracks": [    {      "startTime": 0,      "duration": 30.3514554125,      "length": 32,      "id": 0,      "instrumentNumber": 0,      "instrument": "standard kit",      "instrumentFamily": "drums",      "channelNumber": 9,      "isPercussion": true,      "notes": [        {          "name": "C#2",          "midi": 37,          "time": 0,          "velocity": 0.6299212598425197,          "duration": 0.7044114125000001        },        {          "name": "C#2",          "midi": 37,          "time": 0.705882,          "velocity": 0.6299212598425197,          "duration": 0.7044114125000002        },        {          "name": "C#2",          "midi": 37,          "time": 1.4117640000000002,          "velocity": 0.6299212598425197,          "duration": 0.7044114125000003        },        {          "name": "C#2",          "midi": 37,          "time": 2.1176460000000006,          "velocity": 0.6299212598425197,          "duration": 0.7044114124999998        },        {          "name": "D2",          "midi": 38,          "time": 2.8235280000000005,          "velocity": 0.6299212598425197,          "duration": 0.7044114124999998        },        {          "name": "D2",          "midi": 38,          "time": 3.5294100000000004,          "velocity": 0.6299212598425197,          "duration": 0.7044114124999998        },        {          "name": "D2",          "midi": 38,          "time": 4.235292,          "velocity": 0.6299212598425197,          "duration": 0.7044114124999998        },        {          "name": "D2",          "midi": 38,          "time": 4.941174,          "velocity": 0.6299212598425197,          "duration": 0.7044114124999998        },        {          "name": "D2",          "midi": 38,          "time": 5.647056,          "velocity": 0.6299212598425197,          "duration": 0.7044114124999998        },        {          "name": "D2",          "midi": 38,          "time": 7.05882,          "velocity": 0.6299212598425197,          "duration": 0.7044114124999998        },        {          "name": "D2",          "midi": 38,          "time": 7.764702,          "velocity": 0.6299212598425197,          "duration": 0.7044114125000007        },        {          "name": "D2",          "midi": 38,          "time": 8.470584,          "velocity": 0.6299212598425197,          "duration": 0.7044114125000007        },        {          "name": "D2",          "midi": 38,          "time": 10.588230000000001,          "velocity": 0.6299212598425197,          "duration": 0.7044114125000007        },        {          "name": "D2",          "midi": 38,          "time": 11.999994000000003,          "velocity": 0.6299212598425197,          "duration": 0.7044114125000007        },        {          "name": "D2",          "midi": 38,          "time": 12.705876000000004,          "velocity": 0.6299212598425197,          "duration": 0.7044114125000007        },        {          "name": "D2",          "midi": 38,          "time": 13.411758000000004,          "velocity": 0.6299212598425197,          "duration": 0.7044114125000007        },        {          "name": "D2",          "midi": 38,          "time": 14.117640000000005,          "velocity": 0.6299212598425197,          "duration": 0.7044114125000007        },        {          "name": "D2",          "midi": 38,          "time": 14.823522000000006,          "velocity": 0.6299212598425197,          "duration": 0.7044114125000007        },        {          "name": "D2",          "midi": 38,          "time": 16.941168000000005,          "velocity": 0.6299212598425197,          "duration": 0.7044114125000007        },        {          "name": "D2",          "midi": 38,          "time": 18.352932000000006,          "velocity": 0.6299212598425197,          "duration": 0.7044114125000007        },        {          "name": "D2",          "midi": 38,          "time": 19.058814000000005,          "velocity": 0.6299212598425197,          "duration": 0.7044114125000007        },        {          "name": "D2",          "midi": 38,          "time": 19.764696000000004,          "velocity": 0.6299212598425197,          "duration": 0.7044114125000007        },        {          "name": "D2",          "midi": 38,          "time": 20.470578000000003,          "velocity": 0.6299212598425197,          "duration": 0.7044114125000007        },        {          "name": "D2",          "midi": 38,          "time": 21.176460000000002,          "velocity": 0.6299212598425197,          "duration": 0.7044114125000007        },        {          "name": "D2",          "midi": 38,          "time": 21.882342,          "velocity": 0.6299212598425197,          "duration": 0.7044114125000007        },        {          "name": "D2",          "midi": 38,          "time": 22.588224,          "velocity": 0.6299212598425197,          "duration": 0.7044114125000007        },        {          "name": "D2",          "midi": 38,          "time": 23.294106,          "velocity": 0.6299212598425197,          "duration": 0.7044114125000007        },        {          "name": "D2",          "midi": 38,          "time": 23.999988,          "velocity": 0.6299212598425197,          "duration": 0.7044114125000007        },        {          "name": "D2",          "midi": 38,          "time": 25.411752,          "velocity": 0.6299212598425197,          "duration": 0.7044114125000007        },        {          "name": "D2",          "midi": 38,          "time": 28.23528,          "velocity": 0.6299212598425197,          "duration": 0.7044114125000007        },        {          "name": "D2",          "midi": 38,          "time": 28.941162,          "velocity": 0.6299212598425197,          "duration": 0.7044114125000007        },        {          "name": "D2",          "midi": 38,          "time": 29.647043999999998,          "velocity": 0.6299212598425197,          "duration": 0.7044114125000007        }      ],      "controlChanges": {        "7": [          {            "number": 7,            "time": 0,            "value": 0.7874015748031497          }        ],        "10": [          {            "number": 10,            "time": 0,            "value": 0.5039370078740157          }        ],        "91": [          {            "number": 91,            "time": 0,            "value": 0          }        ],        "93": [          {            "number": 93,            "time": 0,            "value": 0          }        ],        "121": [          {            "number": 121,            "time": 0,            "value": 0          }        ]      }    }  ]}