{  "header": {    "PPQ": 480,    "timeSignature": [      4,      4    ],    "bpm": 75  },  "startTime": 0,  "duration": 26.398333333333316,  "tracks": [    {      "startTime": 0,      "duration": 26.398333333333316,      "length": 41,      "id": 0,      "instrumentNumber": 0,      "instrument": "standard kit",      "instrumentFamily": "drums",      "channelNumber": 9,      "isPercussion": true,      "notes": [        {          "name": "C#2",          "midi": 37,          "time": 0,          "velocity": 0.6299212598425197,          "duration": 0.7983333333333333        },        {          "name": "C#2",          "midi": 37,          "time": 0.8,          "velocity": 0.6299212598425197,          "duration": 0.7983333333333333        },        {          "name": "C#2",          "midi": 37,          "time": 1.6,          "velocity": 0.6299212598425197,          "duration": 0.7983333333333333        },        {          "name": "C#2",          "midi": 37,          "time": 2.4,          "velocity": 0.6299212598425197,          "duration": 0.7983333333333333        },        {          "name": "C2",          "midi": 36,          "time": 3.1999999999999997,          "velocity": 0.6299212598425197,          "duration": 0.7983333333333333        },        {          "name": "F#2",          "midi": 42,          "time": 3.1999999999999997,          "velocity": 0.6299212598425197,          "duration": 0.7983333333333333        },        {          "name": "F#2",          "midi": 42,          "time": 3.9999999999999996,          "velocity": 0.6299212598425197,          "duration": 0.7983333333333333        },        {          "name": "D2",          "midi": 38,          "time": 4.8,          "velocity": 0.6299212598425197,          "duration": 0.7983333333333329        },        {          "name": "F#2",          "midi": 42,          "time": 4.8,          "velocity": 0.6299212598425197,          "duration": 0.7983333333333329        },        {          "name": "F#2",          "midi": 42,          "time": 5.6,          "velocity": 0.6299212598425197,          "duration": 0.7983333333333338        },        {          "name": "C2",          "midi": 36,          "time": 6.4,          "velocity": 0.6299212598425197,          "duration": 0.7983333333333338        },        {          "name": "F#2",          "midi": 42,          "time": 6.4,          "velocity": 0.6299212598425197,          "duration": 0.7983333333333338        },        {          "name": "F#2",          "midi": 42,          "time": 7.200000000000001,          "velocity": 0.6299212598425197,          "duration": 0.7983333333333338        },        {          "name": "D2",          "midi": 38,          "time": 8.000000000000002,          "velocity": 0.6299212598425197,          "duration": 0.7983333333333338        },        {          "name": "F#2",          "midi": 42,          "time": 8.000000000000002,          "velocity": 0.6299212598425197,          "duration": 0.7983333333333338        },        {          "name": "F#2",          "midi": 42,          "time": 8.800000000000002,          "velocity": 0.6299212598425197,          "duration": 0.7983333333333338        },        {          "name": "D2",          "midi": 38,          "time": 9.600000000000003,          "velocity": 0.6299212598425197,          "duration": 0.7983333333333338        },        {          "name": "C3",          "midi": 48,          "time": 10.400000000000004,          "velocity": 0.6299212598425197,          "duration": 0.7983333333333338        },        {          "name": "B2",          "midi": 47,          "time": 11.200000000000005,          "velocity": 0.6299212598425197,          "duration": 0.7983333333333338        },        {          "name": "A2",          "midi": 45,          "time": 12.000000000000005,          "velocity": 0.6299212598425197,          "duration": 0.7983333333333338        },        {          "name": "C2",          "midi": 36,          "time": 12.800000000000006,          "velocity": 0.6299212598425197,          "duration": 0.7983333333333338        },        {          "name": "D#3",          "midi": 51,          "time": 12.800000000000006,          "velocity": 0.6299212598425197,          "duration": 0.7983333333333338        },        {          "name": "D#3",          "midi": 51,          "time": 13.600000000000007,          "velocity": 0.6299212598425197,          "duration": 0.7983333333333338        },        {          "name": "D2",          "midi": 38,          "time": 14.400000000000007,          "velocity": 0.6299212598425197,          "duration": 0.7983333333333338        },        {          "name": "D#3",          "midi": 51,          "time": 14.400000000000007,          "velocity": 0.6299212598425197,          "duration": 0.7983333333333338        },        {          "name": "D#3",          "midi": 51,          "time": 15.200000000000008,          "velocity": 0.6299212598425197,          "duration": 0.7983333333333338        },        {          "name": "C2",          "midi": 36,          "time": 16.000000000000007,          "velocity": 0.6299212598425197,          "duration": 0.798333333333332        },        {          "name": "D#3",          "midi": 51,          "time": 16.000000000000007,          "velocity": 0.6299212598425197,          "duration": 0.798333333333332        },        {          "name": "C2",          "midi": 36,          "time": 16.800000000000004,          "velocity": 0.6299212598425197,          "duration": 0.798333333333332        },        {          "name": "D#3",          "midi": 51,          "time": 16.800000000000004,          "velocity": 0.6299212598425197,          "duration": 0.798333333333332        },        {          "name": "D2",          "midi": 38,          "time": 17.6,          "velocity": 0.6299212598425197,          "duration": 0.798333333333332        },        {          "name": "D#3",          "midi": 51,          "time": 17.6,          "velocity": 0.6299212598425197,          "duration": 0.798333333333332        },        {          "name": "D#3",          "midi": 51,          "time": 18.4,          "velocity": 0.6299212598425197,          "duration": 0.798333333333332        },        {          "name": "C2",          "midi": 36,          "time": 19.199999999999996,          "velocity": 0.6299212598425197,          "duration": 0.798333333333332        },        {          "name": "C#3",          "midi": 49,          "time": 19.199999999999996,          "velocity": 0.6299212598425197,          "duration": 0.798333333333332        },        {          "name": "C3",          "midi": 48,          "time": 21.599999999999994,          "velocity": 0.6299212598425197,          "duration": 0.798333333333332        },        {          "name": "C2",          "midi": 36,          "time": 22.39999999999999,          "velocity": 0.6299212598425197,          "duration": 0.798333333333332        },        {          "name": "C#3",          "midi": 49,          "time": 22.39999999999999,          "velocity": 0.6299212598425197,          "duration": 0.798333333333332        },        {          "name": "A2",          "midi": 45,          "time": 23.99999999999999,          "velocity": 0.6299212598425197,          "duration": 0.798333333333332        },        {          "name": "A2",          "midi": 45,          "time": 24.799999999999986,          "velocity": 0.6299212598425197,          "duration": 0.798333333333332        },        {          "name": "D#3",          "midi": 51,          "time": 25.599999999999984,          "velocity": 0.6299212598425197,          "duration": 0.798333333333332        }      ],      "controlChanges": {        "7": [          {            "number": 7,            "time": 0,            "value": 0.7874015748031497          }        ],        "10": [          {            "number": 10,            "time": 0,            "value": 0.5039370078740157          }        ],        "91": [          {            "number": 91,            "time": 0,            "value": 0          }        ],        "93": [          {            "number": 93,            "time": 0,            "value": 0          }        ],        "121": [          {            "number": 121,            "time": 0,            "value": 0          }        ]      }    }  ]}