{  "header": {    "PPQ": 480,    "timeSignature": [      4,      4    ],    "bpm": 69.99998833333528  },  "startTime": 0,  "duration": 27.42679028541666,  "tracks": [    {      "startTime": 0,      "duration": 27.42679028541666,      "length": 29,      "id": 0,      "instrumentNumber": 0,      "instrument": "standard kit",      "instrumentFamily": "drums",      "channelNumber": 9,      "isPercussion": true,      "notes": [        {          "name": "C#2",          "midi": 37,          "time": 0,          "velocity": 0.6299212598425197,          "duration": 0.8553572854166667        },        {          "name": "C#2",          "midi": 37,          "time": 0.857143,          "velocity": 0.6299212598425197,          "duration": 0.8553572854166667        },        {          "name": "C#2",          "midi": 37,          "time": 1.714286,          "velocity": 0.6299212598425197,          "duration": 0.8553572854166664        },        {          "name": "C#2",          "midi": 37,          "time": 2.5714289999999997,          "velocity": 0.6299212598425197,          "duration": 0.8553572854166664        },        {          "name": "D2",          "midi": 38,          "time": 3.4285719999999995,          "velocity": 0.6299212598425197,          "duration": 0.8553572854166664        },        {          "name": "D2",          "midi": 38,          "time": 5.1428579999999995,          "velocity": 0.6299212598425197,          "duration": 0.8553572854166669        },        {          "name": "D2",          "midi": 38,          "time": 6.000001,          "velocity": 0.6299212598425197,          "duration": 0.8553572854166669        },        {          "name": "D2",          "midi": 38,          "time": 6.857144000000001,          "velocity": 0.6299212598425197,          "duration": 0.8553572854166669        },        {          "name": "D2",          "midi": 38,          "time": 7.7142870000000014,          "velocity": 0.6299212598425197,          "duration": 0.42678578541666656        },        {          "name": "D2",          "midi": 38,          "time": 8.1428585,          "velocity": 0.6299212598425197,          "duration": 0.42678578541666745        },        {          "name": "D2",          "midi": 38,          "time": 8.571430000000001,          "velocity": 0.6299212598425197,          "duration": 0.855357285416666        },        {          "name": "D2",          "midi": 38,          "time": 9.428573,          "velocity": 0.6299212598425197,          "duration": 0.42678578541666745        },        {          "name": "D2",          "midi": 38,          "time": 9.8571445,          "velocity": 0.6299212598425197,          "duration": 0.42678578541666745        },        {          "name": "D2",          "midi": 38,          "time": 11.142859000000001,          "velocity": 0.6299212598425197,          "duration": 0.42678578541666745        },        {          "name": "D2",          "midi": 38,          "time": 11.571430500000002,          "velocity": 0.6299212598425197,          "duration": 0.42678578541666745        },        {          "name": "D2",          "midi": 38,          "time": 12.000002000000002,          "velocity": 0.6299212598425197,          "duration": 0.855357285416666        },        {          "name": "D2",          "midi": 38,          "time": 13.714288000000002,          "velocity": 0.6299212598425197,          "duration": 0.855357285416666        },        {          "name": "D2",          "midi": 38,          "time": 17.14286,          "velocity": 0.6299212598425197,          "duration": 0.855357285416666        },        {          "name": "D2",          "midi": 38,          "time": 18.000003,          "velocity": 0.6299212598425197,          "duration": 0.4267857854166657        },        {          "name": "D2",          "midi": 38,          "time": 18.4285745,          "velocity": 0.6299212598425197,          "duration": 0.4267857854166657        },        {          "name": "D2",          "midi": 38,          "time": 18.857146,          "velocity": 0.6299212598425197,          "duration": 0.4267857854166657        },        {          "name": "D2",          "midi": 38,          "time": 19.2857175,          "velocity": 0.6299212598425197,          "duration": 0.4267857854166657        },        {          "name": "D2",          "midi": 38,          "time": 19.714289,          "velocity": 0.6299212598425197,          "duration": 0.4267857854166657        },        {          "name": "D2",          "midi": 38,          "time": 20.1428605,          "velocity": 0.6299212598425197,          "duration": 0.4267857854166657        },        {          "name": "D2",          "midi": 38,          "time": 20.571432,          "velocity": 0.6299212598425197,          "duration": 0.855357285416666        },        {          "name": "D2",          "midi": 38,          "time": 22.285718,          "velocity": 0.6299212598425197,          "duration": 0.855357285416666        },        {          "name": "D2",          "midi": 38,          "time": 24.000003999999997,          "velocity": 0.6299212598425197,          "duration": 0.855357285416666        },        {          "name": "D2",          "midi": 38,          "time": 26.571432999999995,          "velocity": 0.6299212598425197,          "duration": 0.4267857854166657        },        {          "name": "D2",          "midi": 38,          "time": 27.000004499999996,          "velocity": 0.6299212598425197,          "duration": 0.4267857854166657        }      ],      "controlChanges": {        "7": [          {            "number": 7,            "time": 0,            "value": 0.7874015748031497          }        ],        "10": [          {            "number": 10,            "time": 0,            "value": 0.5039370078740157          }        ],        "91": [          {            "number": 91,            "time": 0,            "value": 0          }        ],        "93": [          {            "number": 93,            "time": 0,            "value": 0          }        ],        "121": [          {            "number": 121,            "time": 0,            "value": 0          }        ]      }    }  ]}