{  "header": {    "PPQ": 480,    "timeSignature": [      4,      4    ],    "bpm": 69.99998833333528  },  "startTime": 0,  "duration": 27.426790285416665,  "tracks": [    {      "startTime": 0,      "duration": 27.426790285416665,      "length": 24,      "id": 0,      "instrumentNumber": 9,      "instrumentFamily": "drums",      "channelNumber": 9,      "isPercussion": true,      "notes": [        {          "name": "C#2",          "midi": 37,          "time": 0,          "velocity": 0.6299212598425197,          "duration": 0.8553572854166667        },        {          "name": "C#2",          "midi": 37,          "time": 0.857143,          "velocity": 0.6299212598425197,          "duration": 0.8553572854166667        },        {          "name": "C#2",          "midi": 37,          "time": 1.714286,          "velocity": 0.6299212598425197,          "duration": 0.8553572854166664        },        {          "name": "C#2",          "midi": 37,          "time": 2.5714289999999997,          "velocity": 0.6299212598425197,          "duration": 0.8553572854166664        },        {          "name": "D2",          "midi": 38,          "time": 3.4285719999999995,          "velocity": 0.6299212598425197,          "duration": 0.8553572854166664        },        {          "name": "C2",          "midi": 36,          "time": 6.857143999999999,          "velocity": 0.6299212598425197,          "duration": 0.8553572854166669        },        {          "name": "C3",          "midi": 48,          "time": 11.142859,          "velocity": 0.6299212598425197,          "duration": 0.855357285416666        },        {          "name": "B2",          "midi": 47,          "time": 12.000001999999999,          "velocity": 0.6299212598425197,          "duration": 0.855357285416666        },        {          "name": "A2",          "midi": 45,          "time": 12.857144999999997,          "velocity": 0.6299212598425197,          "duration": 0.855357285416666        },        {          "name": "C2",          "midi": 36,          "time": 15.428573999999998,          "velocity": 0.6299212598425197,          "duration": 0.855357285416666        },        {          "name": "C#3",          "midi": 49,          "time": 15.428573999999998,          "velocity": 0.6299212598425197,          "duration": 0.855357285416666        },        {          "name": "D#3",          "midi": 51,          "time": 17.142859999999995,          "velocity": 0.6299212598425197,          "duration": 0.855357285416666        },        {          "name": "D#3",          "midi": 51,          "time": 18.000002999999996,          "velocity": 0.6299212598425197,          "duration": 0.855357285416666        },        {          "name": "D#3",          "midi": 51,          "time": 18.857145999999997,          "velocity": 0.6299212598425197,          "duration": 0.855357285416666        },        {          "name": "D#3",          "midi": 51,          "time": 19.714288999999997,          "velocity": 0.6299212598425197,          "duration": 0.855357285416666        },        {          "name": "D2",          "midi": 38,          "time": 20.571431999999998,          "velocity": 0.6299212598425197,          "duration": 0.855357285416666        },        {          "name": "D2",          "midi": 38,          "time": 21.428575,          "velocity": 0.6299212598425197,          "duration": 0.855357285416666        },        {          "name": "D2",          "midi": 38,          "time": 22.285718,          "velocity": 0.6299212598425197,          "duration": 0.4267857854166657        },        {          "name": "D2",          "midi": 38,          "time": 22.7142895,          "velocity": 0.6299212598425197,          "duration": 0.4267857854166657        },        {          "name": "F#2",          "midi": 42,          "time": 24.000003999999997,          "velocity": 0.6299212598425197,          "duration": 0.855357285416666        },        {          "name": "F#2",          "midi": 42,          "time": 24.857146999999998,          "velocity": 0.6299212598425197,          "duration": 0.855357285416666        },        {          "name": "F#2",          "midi": 42,          "time": 25.71429,          "velocity": 0.6299212598425197,          "duration": 0.855357285416666        },        {          "name": "D2",          "midi": 38,          "time": 26.571433,          "velocity": 0.6299212598425197,          "duration": 0.4267857854166657        },        {          "name": "C2",          "midi": 36,          "time": 27.0000045,          "velocity": 0.6299212598425197,          "duration": 0.4267857854166657        }      ],      "controlChanges": {        "7": [          {            "number": 7,            "time": 0,            "value": 0.7874015748031497          }        ],        "10": [          {            "number": 10,            "time": 0,            "value": 0.5039370078740157          }        ],        "91": [          {            "number": 91,            "time": 0,            "value": 0          }        ],        "93": [          {            "number": 93,            "time": 0,            "value": 0          }        ],        "121": [          {            "number": 121,            "time": 0,            "value": 0          }        ]      }    }  ]}