{  "header": {    "PPQ": 480,    "timeSignature": [      4,      4    ],    "bpm": 69.99998833333528  },  "startTime": 0,  "duration": 24.855361285416663,  "tracks": [    {      "startTime": 0,      "duration": 24.855361285416663,      "length": 36,      "id": 0,      "instrumentNumber": 9,      "instrumentFamily": "drums",      "channelNumber": 9,      "isPercussion": true,      "notes": [        {          "name": "C#2",          "midi": 37,          "time": 0,          "velocity": 0.6299212598425197,          "duration": 0.8553572854166667        },        {          "name": "C#2",          "midi": 37,          "time": 0.857143,          "velocity": 0.6299212598425197,          "duration": 0.8553572854166667        },        {          "name": "C#2",          "midi": 37,          "time": 1.714286,          "velocity": 0.6299212598425197,          "duration": 0.8553572854166664        },        {          "name": "C#2",          "midi": 37,          "time": 2.5714289999999997,          "velocity": 0.6299212598425197,          "duration": 0.8553572854166664        },        {          "name": "C2",          "midi": 36,          "time": 3.4285719999999995,          "velocity": 0.6299212598425197,          "duration": 0.8553572854166664        },        {          "name": "F#2",          "midi": 42,          "time": 3.4285719999999995,          "velocity": 0.6299212598425197,          "duration": 0.8553572854166664        },        {          "name": "F#2",          "midi": 42,          "time": 4.285715,          "velocity": 0.6299212598425197,          "duration": 0.8553572854166669        },        {          "name": "D2",          "midi": 38,          "time": 5.142858,          "velocity": 0.6299212598425197,          "duration": 0.8553572854166669        },        {          "name": "F#2",          "midi": 42,          "time": 5.142858,          "velocity": 0.6299212598425197,          "duration": 0.8553572854166669        },        {          "name": "F#2",          "midi": 42,          "time": 6.000001000000001,          "velocity": 0.6299212598425197,          "duration": 0.8553572854166669        },        {          "name": "C2",          "midi": 36,          "time": 6.857144000000002,          "velocity": 0.6299212598425197,          "duration": 0.8553572854166669        },        {          "name": "F#2",          "midi": 42,          "time": 6.857144000000002,          "velocity": 0.6299212598425197,          "duration": 0.8553572854166669        },        {          "name": "F#2",          "midi": 42,          "time": 7.714287000000002,          "velocity": 0.6299212598425197,          "duration": 0.855357285416666        },        {          "name": "D2",          "midi": 38,          "time": 8.571430000000001,          "velocity": 0.6299212598425197,          "duration": 0.855357285416666        },        {          "name": "F#2",          "midi": 42,          "time": 8.571430000000001,          "velocity": 0.6299212598425197,          "duration": 0.855357285416666        },        {          "name": "F#2",          "midi": 42,          "time": 9.428573,          "velocity": 0.6299212598425197,          "duration": 0.855357285416666        },        {          "name": "D2",          "midi": 38,          "time": 10.285715999999999,          "velocity": 0.6299212598425197,          "duration": 0.855357285416666        },        {          "name": "C3",          "midi": 48,          "time": 11.142858999999998,          "velocity": 0.6299212598425197,          "duration": 0.855357285416666        },        {          "name": "B2",          "midi": 47,          "time": 12.000001999999997,          "velocity": 0.6299212598425197,          "duration": 0.855357285416666        },        {          "name": "A2",          "midi": 45,          "time": 12.857144999999996,          "velocity": 0.6299212598425197,          "duration": 0.855357285416666        },        {          "name": "C2",          "midi": 36,          "time": 13.714287999999994,          "velocity": 0.6299212598425197,          "duration": 0.855357285416666        },        {          "name": "D#3",          "midi": 51,          "time": 13.714287999999994,          "velocity": 0.6299212598425197,          "duration": 0.855357285416666        },        {          "name": "D#3",          "midi": 51,          "time": 14.571430999999993,          "velocity": 0.6299212598425197,          "duration": 0.855357285416666        },        {          "name": "D2",          "midi": 38,          "time": 15.428573999999992,          "velocity": 0.6299212598425197,          "duration": 0.8553572854166678        },        {          "name": "D#3",          "midi": 51,          "time": 15.428573999999992,          "velocity": 0.6299212598425197,          "duration": 0.8553572854166678        },        {          "name": "D#3",          "midi": 51,          "time": 16.285716999999995,          "velocity": 0.6299212598425197,          "duration": 0.855357285416666        },        {          "name": "C2",          "midi": 36,          "time": 17.142859999999995,          "velocity": 0.6299212598425197,          "duration": 0.855357285416666        },        {          "name": "D#3",          "midi": 51,          "time": 17.142859999999995,          "velocity": 0.6299212598425197,          "duration": 0.855357285416666        },        {          "name": "D#3",          "midi": 51,          "time": 18.000002999999996,          "velocity": 0.6299212598425197,          "duration": 0.855357285416666        },        {          "name": "D2",          "midi": 38,          "time": 18.857145999999997,          "velocity": 0.6299212598425197,          "duration": 0.855357285416666        },        {          "name": "D#3",          "midi": 51,          "time": 18.857145999999997,          "velocity": 0.6299212598425197,          "duration": 0.855357285416666        },        {          "name": "D#3",          "midi": 51,          "time": 19.714288999999997,          "velocity": 0.6299212598425197,          "duration": 0.855357285416666        },        {          "name": "C2",          "midi": 36,          "time": 20.571431999999998,          "velocity": 0.6299212598425197,          "duration": 0.855357285416666        },        {          "name": "C#3",          "midi": 49,          "time": 20.571431999999998,          "velocity": 0.6299212598425197,          "duration": 0.855357285416666        },        {          "name": "C2",          "midi": 36,          "time": 24.000003999999997,          "velocity": 0.6299212598425197,          "duration": 0.855357285416666        },        {          "name": "C#3",          "midi": 49,          "time": 24.000003999999997,          "velocity": 0.6299212598425197,          "duration": 0.855357285416666        }      ],      "controlChanges": {        "7": [          {            "number": 7,            "time": 0,            "value": 0.7874015748031497          }        ],        "10": [          {            "number": 10,            "time": 0,            "value": 0.5039370078740157          }        ],        "91": [          {            "number": 91,            "time": 0,            "value": 0          }        ],        "93": [          {            "number": 93,            "time": 0,            "value": 0          }        ],        "121": [          {            "number": 121,            "time": 0,            "value": 0          }        ]      }    }  ]}