{  "header": {    "PPQ": 480,    "timeSignature": [      4,      4    ],    "bpm": 120  },  "startTime": 0,  "duration": 19.998958333333334,  "tracks": [    {      "startTime": 0,      "duration": 19.998958333333334,      "length": 22,      "id": 0,      "instrumentNumber": 9,      "instrumentFamily": "drums",      "channelNumber": 9,      "isPercussion": true,      "notes": [        {          "name": "C#2",          "midi": 37,          "time": 0,          "velocity": 0.6299212598425197,          "duration": 0.49895833333333334        },        {          "name": "C#2",          "midi": 37,          "time": 0.5,          "velocity": 0.6299212598425197,          "duration": 0.4989583333333334        },        {          "name": "C#2",          "midi": 37,          "time": 1,          "velocity": 0.6299212598425197,          "duration": 0.4989583333333334        },        {          "name": "C#2",          "midi": 37,          "time": 1.5,          "velocity": 0.6299212598425197,          "duration": 0.4989583333333334        },        {          "name": "D2",          "midi": 38,          "time": 2,          "velocity": 0.6299212598425197,          "duration": 0.4989583333333334        },        {          "name": "D2",          "midi": 38,          "time": 3,          "velocity": 0.6299212598425197,          "duration": 0.4989583333333334        },        {          "name": "D2",          "midi": 38,          "time": 3.5,          "velocity": 0.6299212598425197,          "duration": 0.4989583333333334        },        {          "name": "D2",          "midi": 38,          "time": 4,          "velocity": 0.6299212598425197,          "duration": 0.4989583333333334        },        {          "name": "D2",          "midi": 38,          "time": 5,          "velocity": 0.6299212598425197,          "duration": 0.4989583333333334        },        {          "name": "D2",          "midi": 38,          "time": 6,          "velocity": 0.6299212598425197,          "duration": 0.4989583333333334        },        {          "name": "D2",          "midi": 38,          "time": 8,          "velocity": 0.6299212598425197,          "duration": 0.4989583333333325        },        {          "name": "D2",          "midi": 38,          "time": 8.5,          "velocity": 0.6299212598425197,          "duration": 0.4989583333333325        },        {          "name": "D2",          "midi": 38,          "time": 10,          "velocity": 0.6299212598425197,          "duration": 0.2489583333333325        },        {          "name": "D2",          "midi": 38,          "time": 10.25,          "velocity": 0.6299212598425197,          "duration": 0.2489583333333325        },        {          "name": "D2",          "midi": 38,          "time": 10.5,          "velocity": 0.6299212598425197,          "duration": 0.4989583333333325        },        {          "name": "D2",          "midi": 38,          "time": 12,          "velocity": 0.6299212598425197,          "duration": 0.4989583333333325        },        {          "name": "D2",          "midi": 38,          "time": 13.5,          "velocity": 0.6299212598425197,          "duration": 0.2489583333333325        },        {          "name": "D2",          "midi": 38,          "time": 13.75,          "velocity": 0.6299212598425197,          "duration": 0.2489583333333325        },        {          "name": "D2",          "midi": 38,          "time": 14,          "velocity": 0.6299212598425197,          "duration": 0.4989583333333325        },        {          "name": "D2",          "midi": 38,          "time": 16,          "velocity": 0.6299212598425197,          "duration": 0.4989583333333343        },        {          "name": "D2",          "midi": 38,          "time": 18,          "velocity": 0.6299212598425197,          "duration": 0.4989583333333343        },        {          "name": "D2",          "midi": 38,          "time": 19.5,          "velocity": 0.6299212598425197,          "duration": 0.4989583333333343        }      ],      "controlChanges": {        "7": [          {            "number": 7,            "time": 0,            "value": 0.7874015748031497          }        ],        "10": [          {            "number": 10,            "time": 0,            "value": 0.5039370078740157          }        ],        "91": [          {            "number": 91,            "time": 0,            "value": 0          }        ],        "93": [          {            "number": 93,            "time": 0,            "value": 0          }        ],        "121": [          {            "number": 121,            "time": 0,            "value": 0          }        ]      }    }  ]}